<mxfile host="app.diagrams.net" agent="Mozilla/5.0 (Windows NT 10.0; Win64; x64) AppleWebKit/537.36 (KHTML, like Gecko) Chrome/136.0.0.0 Safari/537.36 Edg/136.0.0.0" version="27.0.6">
  <diagram name="Page-1" id="Tlm7Z0M-y1s7HU6LuCQs">
    <mxGraphModel dx="1418" dy="786" grid="1" gridSize="10" guides="1" tooltips="1" connect="1" arrows="1" fold="1" page="1" pageScale="1" pageWidth="827" pageHeight="1169" background="none" math="0" shadow="0">
      <root>
        <mxCell id="0" />
        <mxCell id="1" parent="0" />
        <mxCell id="eYvCrWKY8Ww0zXrtpmSG-1" value="&lt;b&gt;&lt;font style=&quot;font-size: 14px;&quot;&gt;Asztali alkalmazás&lt;/font&gt;&lt;/b&gt;" style="html=1;dropTarget=0;whiteSpace=wrap;fillColor=#1ba1e2;fontColor=#ffffff;strokeColor=#006EAF;" parent="1" vertex="1">
          <mxGeometry x="140" y="220" width="180" height="90" as="geometry" />
        </mxCell>
        <mxCell id="eYvCrWKY8Ww0zXrtpmSG-2" value="" style="shape=module;jettyWidth=8;jettyHeight=4;" parent="eYvCrWKY8Ww0zXrtpmSG-1" vertex="1">
          <mxGeometry x="1" width="20" height="20" relative="1" as="geometry">
            <mxPoint x="-27" y="7" as="offset" />
          </mxGeometry>
        </mxCell>
        <mxCell id="eYvCrWKY8Ww0zXrtpmSG-5" value="&lt;b&gt;&lt;font style=&quot;font-size: 14px;&quot;&gt;Mobil alkalmazás&lt;/font&gt;&lt;/b&gt;" style="html=1;dropTarget=0;whiteSpace=wrap;fillColor=#1ba1e2;fontColor=#ffffff;strokeColor=#006EAF;" parent="1" vertex="1">
          <mxGeometry x="140" y="380" width="180" height="90" as="geometry" />
        </mxCell>
        <mxCell id="eYvCrWKY8Ww0zXrtpmSG-6" value="" style="shape=module;jettyWidth=8;jettyHeight=4;" parent="eYvCrWKY8Ww0zXrtpmSG-5" vertex="1">
          <mxGeometry x="1" width="20" height="20" relative="1" as="geometry">
            <mxPoint x="-27" y="7" as="offset" />
          </mxGeometry>
        </mxCell>
        <mxCell id="eYvCrWKY8Ww0zXrtpmSG-7" value="&lt;b&gt;&lt;font style=&quot;font-size: 14px;&quot;&gt;Webszerver&lt;/font&gt;&lt;/b&gt;" style="html=1;dropTarget=0;whiteSpace=wrap;fillColor=#1ba1e2;fontColor=#ffffff;strokeColor=#006EAF;" parent="1" vertex="1">
          <mxGeometry x="590" y="380" width="180" height="90" as="geometry" />
        </mxCell>
        <mxCell id="eYvCrWKY8Ww0zXrtpmSG-8" value="" style="shape=module;jettyWidth=8;jettyHeight=4;" parent="eYvCrWKY8Ww0zXrtpmSG-7" vertex="1">
          <mxGeometry x="1" width="20" height="20" relative="1" as="geometry">
            <mxPoint x="-27" y="7" as="offset" />
          </mxGeometry>
        </mxCell>
        <mxCell id="eYvCrWKY8Ww0zXrtpmSG-9" value="&lt;b&gt;&lt;font style=&quot;font-size: 14px;&quot;&gt;Mesterséges intelligencia&lt;/font&gt;&lt;/b&gt;&lt;div&gt;&lt;b&gt;&lt;font style=&quot;font-size: 14px;&quot;&gt;modell&lt;/font&gt;&lt;/b&gt;&lt;/div&gt;" style="html=1;dropTarget=0;whiteSpace=wrap;fillColor=#0050ef;fontColor=#ffffff;strokeColor=#001DBC;" parent="1" vertex="1">
          <mxGeometry x="840" y="220" width="180" height="90" as="geometry" />
        </mxCell>
        <mxCell id="eYvCrWKY8Ww0zXrtpmSG-10" value="" style="shape=module;jettyWidth=8;jettyHeight=4;" parent="eYvCrWKY8Ww0zXrtpmSG-9" vertex="1">
          <mxGeometry x="1" width="20" height="20" relative="1" as="geometry">
            <mxPoint x="-27" y="7" as="offset" />
          </mxGeometry>
        </mxCell>
        <mxCell id="eYvCrWKY8Ww0zXrtpmSG-11" value="&lt;b&gt;&lt;font style=&quot;font-size: 14px;&quot;&gt;Játék logika&lt;/font&gt;&lt;/b&gt;" style="html=1;dropTarget=0;whiteSpace=wrap;fillColor=#0050ef;fontColor=#ffffff;strokeColor=#001DBC;" parent="1" vertex="1">
          <mxGeometry x="590" y="220" width="180" height="90" as="geometry" />
        </mxCell>
        <mxCell id="eYvCrWKY8Ww0zXrtpmSG-12" value="" style="shape=module;jettyWidth=8;jettyHeight=4;" parent="eYvCrWKY8Ww0zXrtpmSG-11" vertex="1">
          <mxGeometry x="1" width="20" height="20" relative="1" as="geometry">
            <mxPoint x="-27" y="7" as="offset" />
          </mxGeometry>
        </mxCell>
        <mxCell id="eYvCrWKY8Ww0zXrtpmSG-13" value="" style="rounded=0;orthogonalLoop=1;jettySize=auto;html=1;endArrow=halfCircle;endFill=0;endSize=6;strokeWidth=1;sketch=0;fillColor=#1ba1e2;strokeColor=#006EAF;" parent="1" source="eYvCrWKY8Ww0zXrtpmSG-7" edge="1">
          <mxGeometry relative="1" as="geometry">
            <mxPoint x="580" y="405" as="sourcePoint" />
            <mxPoint x="570" y="390" as="targetPoint" />
          </mxGeometry>
        </mxCell>
        <mxCell id="eYvCrWKY8Ww0zXrtpmSG-14" value="" style="rounded=0;orthogonalLoop=1;jettySize=auto;html=1;endArrow=oval;endFill=0;sketch=0;sourcePerimeterSpacing=0;targetPerimeterSpacing=0;endSize=10;fillColor=#1ba1e2;strokeColor=#006EAF;" parent="1" source="usgI6QfZhJe9FUevODh1-1" edge="1">
          <mxGeometry relative="1" as="geometry">
            <mxPoint x="540" y="405" as="sourcePoint" />
            <mxPoint x="570" y="390" as="targetPoint" />
          </mxGeometry>
        </mxCell>
        <mxCell id="eYvCrWKY8Ww0zXrtpmSG-15" value="" style="ellipse;whiteSpace=wrap;html=1;align=center;aspect=fixed;fillColor=none;strokeColor=none;resizable=0;perimeter=centerPerimeter;rotatable=0;allowArrows=0;points=[];outlineConnect=1;" parent="1" vertex="1">
          <mxGeometry x="555" y="400" width="10" height="10" as="geometry" />
        </mxCell>
        <mxCell id="eYvCrWKY8Ww0zXrtpmSG-16" value="" style="rounded=0;orthogonalLoop=1;jettySize=auto;html=1;endArrow=halfCircle;endFill=0;endSize=6;strokeWidth=1;sketch=0;fillColor=#1ba1e2;strokeColor=#006EAF;" parent="1" source="usgI6QfZhJe9FUevODh1-1" edge="1">
          <mxGeometry relative="1" as="geometry">
            <mxPoint x="580" y="405" as="sourcePoint" />
            <mxPoint x="570" y="360" as="targetPoint" />
            <Array as="points" />
          </mxGeometry>
        </mxCell>
        <mxCell id="eYvCrWKY8Ww0zXrtpmSG-17" value="" style="rounded=0;orthogonalLoop=1;jettySize=auto;html=1;endArrow=oval;endFill=0;sketch=0;sourcePerimeterSpacing=0;targetPerimeterSpacing=0;endSize=10;fillColor=#1ba1e2;strokeColor=#006EAF;" parent="1" source="eYvCrWKY8Ww0zXrtpmSG-7" edge="1">
          <mxGeometry relative="1" as="geometry">
            <mxPoint x="390" y="340" as="sourcePoint" />
            <mxPoint x="570" y="360" as="targetPoint" />
          </mxGeometry>
        </mxCell>
        <mxCell id="eYvCrWKY8Ww0zXrtpmSG-18" value="" style="ellipse;whiteSpace=wrap;html=1;align=center;aspect=fixed;fillColor=none;strokeColor=none;resizable=0;perimeter=centerPerimeter;rotatable=0;allowArrows=0;points=[];outlineConnect=1;" parent="1" vertex="1">
          <mxGeometry x="555" y="400" width="10" height="10" as="geometry" />
        </mxCell>
        <mxCell id="eYvCrWKY8Ww0zXrtpmSG-19" value="" style="rounded=0;orthogonalLoop=1;jettySize=auto;html=1;endArrow=halfCircle;endFill=0;endSize=6;strokeWidth=1;sketch=0;fillColor=#0050ef;strokeColor=#001DBC;" parent="1" source="usgI6QfZhJe9FUevODh1-1" edge="1">
          <mxGeometry relative="1" as="geometry">
            <mxPoint x="580" y="405" as="sourcePoint" />
            <mxPoint x="350" y="300" as="targetPoint" />
          </mxGeometry>
        </mxCell>
        <mxCell id="eYvCrWKY8Ww0zXrtpmSG-20" value="" style="rounded=0;orthogonalLoop=1;jettySize=auto;html=1;endArrow=oval;endFill=0;sketch=0;sourcePerimeterSpacing=0;targetPerimeterSpacing=0;endSize=10;fillColor=#1ba1e2;strokeColor=#006EAF;" parent="1" source="eYvCrWKY8Ww0zXrtpmSG-1" edge="1">
          <mxGeometry relative="1" as="geometry">
            <mxPoint x="540" y="405" as="sourcePoint" />
            <mxPoint x="350" y="300" as="targetPoint" />
          </mxGeometry>
        </mxCell>
        <mxCell id="eYvCrWKY8Ww0zXrtpmSG-21" value="" style="ellipse;whiteSpace=wrap;html=1;align=center;aspect=fixed;fillColor=none;strokeColor=none;resizable=0;perimeter=centerPerimeter;rotatable=0;allowArrows=0;points=[];outlineConnect=1;" parent="1" vertex="1">
          <mxGeometry x="555" y="400" width="10" height="10" as="geometry" />
        </mxCell>
        <mxCell id="eYvCrWKY8Ww0zXrtpmSG-22" value="" style="rounded=0;orthogonalLoop=1;jettySize=auto;html=1;endArrow=halfCircle;endFill=0;endSize=6;strokeWidth=1;sketch=0;fillColor=#1ba1e2;strokeColor=#006EAF;" parent="1" source="eYvCrWKY8Ww0zXrtpmSG-9" edge="1">
          <mxGeometry relative="1" as="geometry">
            <mxPoint x="580" y="305" as="sourcePoint" />
            <mxPoint x="800" y="265" as="targetPoint" />
          </mxGeometry>
        </mxCell>
        <mxCell id="eYvCrWKY8Ww0zXrtpmSG-23" value="" style="rounded=0;orthogonalLoop=1;jettySize=auto;html=1;endArrow=oval;endFill=0;sketch=0;sourcePerimeterSpacing=0;targetPerimeterSpacing=0;endSize=10;fillColor=#1ba1e2;strokeColor=#006EAF;" parent="1" source="eYvCrWKY8Ww0zXrtpmSG-11" edge="1">
          <mxGeometry relative="1" as="geometry">
            <mxPoint x="540" y="305" as="sourcePoint" />
            <mxPoint x="800" y="265" as="targetPoint" />
          </mxGeometry>
        </mxCell>
        <mxCell id="eYvCrWKY8Ww0zXrtpmSG-24" value="" style="ellipse;whiteSpace=wrap;html=1;align=center;aspect=fixed;fillColor=none;strokeColor=none;resizable=0;perimeter=centerPerimeter;rotatable=0;allowArrows=0;points=[];outlineConnect=1;" parent="1" vertex="1">
          <mxGeometry x="555" y="300" width="10" height="10" as="geometry" />
        </mxCell>
        <mxCell id="eYvCrWKY8Ww0zXrtpmSG-25" value="" style="rounded=0;orthogonalLoop=1;jettySize=auto;html=1;endArrow=halfCircle;endFill=0;endSize=6;strokeWidth=1;sketch=0;fillColor=#1ba1e2;strokeColor=#006EAF;" parent="1" source="eYvCrWKY8Ww0zXrtpmSG-11" edge="1">
          <mxGeometry relative="1" as="geometry">
            <mxPoint x="580" y="205" as="sourcePoint" />
            <mxPoint x="570" y="290" as="targetPoint" />
          </mxGeometry>
        </mxCell>
        <mxCell id="eYvCrWKY8Ww0zXrtpmSG-26" value="" style="rounded=0;orthogonalLoop=1;jettySize=auto;html=1;endArrow=oval;endFill=0;sketch=0;sourcePerimeterSpacing=0;targetPerimeterSpacing=0;endSize=10;fillColor=#1ba1e2;strokeColor=#006EAF;" parent="1" source="usgI6QfZhJe9FUevODh1-1" edge="1">
          <mxGeometry relative="1" as="geometry">
            <mxPoint x="540" y="205" as="sourcePoint" />
            <mxPoint x="570" y="290" as="targetPoint" />
          </mxGeometry>
        </mxCell>
        <mxCell id="eYvCrWKY8Ww0zXrtpmSG-27" value="" style="ellipse;whiteSpace=wrap;html=1;align=center;aspect=fixed;fillColor=none;strokeColor=none;resizable=0;perimeter=centerPerimeter;rotatable=0;allowArrows=0;points=[];outlineConnect=1;" parent="1" vertex="1">
          <mxGeometry x="555" y="200" width="10" height="10" as="geometry" />
        </mxCell>
        <mxCell id="eYvCrWKY8Ww0zXrtpmSG-28" value="" style="rounded=0;orthogonalLoop=1;jettySize=auto;html=1;endArrow=halfCircle;endFill=0;endSize=6;strokeWidth=1;sketch=0;fillColor=#1ba1e2;strokeColor=#006EAF;" parent="1" source="usgI6QfZhJe9FUevODh1-1" edge="1">
          <mxGeometry relative="1" as="geometry">
            <mxPoint x="580" y="205" as="sourcePoint" />
            <mxPoint x="350" y="390" as="targetPoint" />
          </mxGeometry>
        </mxCell>
        <mxCell id="eYvCrWKY8Ww0zXrtpmSG-29" value="" style="rounded=0;orthogonalLoop=1;jettySize=auto;html=1;endArrow=oval;endFill=0;sketch=0;sourcePerimeterSpacing=0;targetPerimeterSpacing=0;endSize=10;fillColor=#1ba1e2;strokeColor=#006EAF;" parent="1" source="eYvCrWKY8Ww0zXrtpmSG-5" edge="1">
          <mxGeometry relative="1" as="geometry">
            <mxPoint x="540" y="205" as="sourcePoint" />
            <mxPoint x="350" y="390" as="targetPoint" />
          </mxGeometry>
        </mxCell>
        <mxCell id="eYvCrWKY8Ww0zXrtpmSG-30" value="" style="ellipse;whiteSpace=wrap;html=1;align=center;aspect=fixed;fillColor=none;strokeColor=none;resizable=0;perimeter=centerPerimeter;rotatable=0;allowArrows=0;points=[];outlineConnect=1;" parent="1" vertex="1">
          <mxGeometry x="555" y="200" width="10" height="10" as="geometry" />
        </mxCell>
        <mxCell id="eYvCrWKY8Ww0zXrtpmSG-31" value="&lt;font style=&quot;font-size: 14px;&quot;&gt;&lt;b&gt;Adatbázis&lt;/b&gt;&lt;/font&gt;" style="html=1;dropTarget=0;whiteSpace=wrap;fillColor=#1ba1e2;fontColor=#ffffff;strokeColor=#006EAF;" parent="1" vertex="1">
          <mxGeometry x="840" y="380" width="180" height="90" as="geometry" />
        </mxCell>
        <mxCell id="eYvCrWKY8Ww0zXrtpmSG-32" value="" style="shape=module;jettyWidth=8;jettyHeight=4;" parent="eYvCrWKY8Ww0zXrtpmSG-31" vertex="1">
          <mxGeometry x="1" width="20" height="20" relative="1" as="geometry">
            <mxPoint x="-27" y="7" as="offset" />
          </mxGeometry>
        </mxCell>
        <mxCell id="eYvCrWKY8Ww0zXrtpmSG-33" value="" style="rounded=0;orthogonalLoop=1;jettySize=auto;html=1;endArrow=halfCircle;endFill=0;endSize=6;strokeWidth=1;sketch=0;fillColor=#1ba1e2;strokeColor=#006EAF;" parent="1" source="eYvCrWKY8Ww0zXrtpmSG-31" edge="1">
          <mxGeometry relative="1" as="geometry">
            <mxPoint x="580" y="405" as="sourcePoint" />
            <mxPoint x="800" y="425" as="targetPoint" />
          </mxGeometry>
        </mxCell>
        <mxCell id="eYvCrWKY8Ww0zXrtpmSG-34" value="" style="rounded=0;orthogonalLoop=1;jettySize=auto;html=1;endArrow=oval;endFill=0;sketch=0;sourcePerimeterSpacing=0;targetPerimeterSpacing=0;endSize=10;fillColor=#1ba1e2;strokeColor=#006EAF;" parent="1" source="eYvCrWKY8Ww0zXrtpmSG-7" edge="1">
          <mxGeometry relative="1" as="geometry">
            <mxPoint x="540" y="405" as="sourcePoint" />
            <mxPoint x="800" y="425" as="targetPoint" />
          </mxGeometry>
        </mxCell>
        <mxCell id="eYvCrWKY8Ww0zXrtpmSG-35" value="" style="ellipse;whiteSpace=wrap;html=1;align=center;aspect=fixed;fillColor=none;strokeColor=none;resizable=0;perimeter=centerPerimeter;rotatable=0;allowArrows=0;points=[];outlineConnect=1;" parent="1" vertex="1">
          <mxGeometry x="555" y="400" width="10" height="10" as="geometry" />
        </mxCell>
        <mxCell id="usgI6QfZhJe9FUevODh1-1" value="&lt;b&gt;&lt;font style=&quot;font-size: 14px;&quot;&gt;Játék vezérlés&lt;/font&gt;&lt;/b&gt;" style="html=1;dropTarget=0;whiteSpace=wrap;fillColor=#1ba1e2;fontColor=#ffffff;strokeColor=#006EAF;" vertex="1" parent="1">
          <mxGeometry x="375" y="290" width="180" height="90" as="geometry" />
        </mxCell>
        <mxCell id="usgI6QfZhJe9FUevODh1-2" value="" style="shape=module;jettyWidth=8;jettyHeight=4;" vertex="1" parent="usgI6QfZhJe9FUevODh1-1">
          <mxGeometry x="1" width="20" height="20" relative="1" as="geometry">
            <mxPoint x="-27" y="7" as="offset" />
          </mxGeometry>
        </mxCell>
      </root>
    </mxGraphModel>
  </diagram>
</mxfile>
